<svg width="1920" height="480" viewBox="0 0 1920 480" fill="none" xmlns="http://www.w3.org/2000/svg">
<g clip-path="url(#clip0_3_3)">
<rect width="1920" height="480" fill="white"/>
<rect width="1920" height="480" fill="black"/>
<rect x="-291" y="271.045" width="5" height="918.373" transform="rotate(-45 -291 271.045)" fill="#51E5A1"/>
<rect x="-237.187" y="217.233" width="5" height="918.373" transform="rotate(-45 -237.187 217.233)" fill="#51E5A1"/>
<rect x="-264.057" y="244.103" width="5" height="918.373" transform="rotate(-45 -264.057 244.103)" fill="#51E5A1"/>
<rect x="-210.317" y="190.363" width="5" height="918.373" transform="rotate(-45 -210.317 190.363)" fill="#51E5A1"/>
<rect x="-277.565" y="257.61" width="5" height="918.373" transform="rotate(-45 -277.565 257.61)" fill="#51E5A1"/>
<rect x="-223.752" y="203.798" width="5" height="918.373" transform="rotate(-45 -223.752 203.798)" fill="#51E5A1"/>
<rect x="-250.622" y="230.668" width="5" height="918.373" transform="rotate(-45 -250.622 230.668)" fill="#51E5A1"/>
<rect x="-196.882" y="176.928" width="5" height="918.373" transform="rotate(-45 -196.882 176.928)" fill="#51E5A1"/>
<rect x="-184.154" y="164.2" width="5" height="918.373" transform="rotate(-45 -184.154 164.2)" fill="#51E5A1"/>
<rect x="-130.341" y="110.387" width="5" height="918.373" transform="rotate(-45 -130.341 110.387)" fill="#51E5A1"/>
<rect x="-157.212" y="137.257" width="5" height="918.373" transform="rotate(-45 -157.212 137.257)" fill="#51E5A1"/>
<rect x="-103.471" y="83.5168" width="5" height="918.373" transform="rotate(-45 -103.471 83.5168)" fill="#51E5A1"/>
<rect x="-170.719" y="150.765" width="5" height="918.373" transform="rotate(-45 -170.719 150.765)" fill="#51E5A1"/>
<rect x="-116.906" y="96.9518" width="5" height="918.373" transform="rotate(-45 -116.906 96.9518)" fill="#51E5A1"/>
<rect x="-143.777" y="123.822" width="5" height="918.373" transform="rotate(-45 -143.777 123.822)" fill="#51E5A1"/>
<rect x="-90.0364" y="70.0818" width="5" height="918.373" transform="rotate(-45 -90.0364 70.0818)" fill="#51E5A1"/>
<rect x="-77.3811" y="57.4265" width="5" height="918.373" transform="rotate(-45 -77.3811 57.4265)" fill="#51E5A1"/>
<rect x="-23.5684" y="3.61372" width="5" height="918.373" transform="rotate(-45 -23.5684 3.61372)" fill="#51E5A1"/>
<rect x="-50.4384" y="30.4838" width="5" height="918.373" transform="rotate(-45 -50.4384 30.4838)" fill="#51E5A1"/>
<rect x="3.30167" y="-23.2563" width="5" height="918.373" transform="rotate(-45 3.30167 -23.2563)" fill="#51E5A1"/>
<rect x="-63.9461" y="43.9914" width="5" height="918.373" transform="rotate(-45 -63.9461 43.9914)" fill="#51E5A1"/>
<rect x="-10.1334" y="-9.8213" width="5" height="918.373" transform="rotate(-45 -10.1334 -9.8213)" fill="#51E5A1"/>
<rect x="-37.0034" y="17.0488" width="5" height="918.373" transform="rotate(-45 -37.0034 17.0488)" fill="#51E5A1"/>
<rect x="16.7367" y="-36.6914" width="5" height="918.373" transform="rotate(-45 16.7367 -36.6914)" fill="#51E5A1"/>
<rect x="29.392" y="-49.3466" width="5" height="918.373" transform="rotate(-45 29.392 -49.3466)" fill="#51E5A1"/>
<rect x="83.2047" y="-103.159" width="5" height="918.373" transform="rotate(-45 83.2047 -103.159)" fill="#51E5A1"/>
<rect x="56.3347" y="-76.2893" width="5" height="918.373" transform="rotate(-45 56.3347 -76.2893)" fill="#51E5A1"/>
<rect x="110.075" y="-130.029" width="5" height="918.373" transform="rotate(-45 110.075 -130.029)" fill="#51E5A1"/>
<rect x="42.827" y="-62.7817" width="5" height="918.373" transform="rotate(-45 42.827 -62.7817)" fill="#51E5A1"/>
<rect x="96.6398" y="-116.594" width="5" height="918.373" transform="rotate(-45 96.6398 -116.594)" fill="#51E5A1"/>
<rect x="69.7697" y="-89.7244" width="5" height="918.373" transform="rotate(-45 69.7697 -89.7244)" fill="#51E5A1"/>
<rect x="123.51" y="-143.464" width="5" height="918.373" transform="rotate(-45 123.51 -143.464)" fill="#51E5A1"/>
<rect x="1136" y="-10.9546" width="5" height="918.373" transform="rotate(-45 1136 -10.9546)" fill="#51E5A1"/>
<rect x="1189.81" y="-64.7674" width="5" height="918.373" transform="rotate(-45 1189.81 -64.7674)" fill="#51E5A1"/>
<rect x="1162.94" y="-37.8973" width="5" height="918.373" transform="rotate(-45 1162.94 -37.8973)" fill="#51E5A1"/>
<rect x="1216.68" y="-91.6374" width="5" height="918.373" transform="rotate(-45 1216.68 -91.6374)" fill="#51E5A1"/>
<rect x="1149.44" y="-24.3896" width="5" height="918.373" transform="rotate(-45 1149.44 -24.3896)" fill="#51E5A1"/>
<rect x="1203.25" y="-78.2024" width="5" height="918.373" transform="rotate(-45 1203.25 -78.2024)" fill="#51E5A1"/>
<rect x="1176.38" y="-51.3323" width="5" height="918.373" transform="rotate(-45 1176.38 -51.3323)" fill="#51E5A1"/>
<rect x="1230.12" y="-105.072" width="5" height="918.373" transform="rotate(-45 1230.12 -105.072)" fill="#51E5A1"/>
<rect x="1242.85" y="-117.8" width="5" height="918.373" transform="rotate(-45 1242.85 -117.8)" fill="#51E5A1"/>
<rect x="1296.66" y="-171.613" width="5" height="918.373" transform="rotate(-45 1296.66 -171.613)" fill="#51E5A1"/>
<rect x="1269.79" y="-144.743" width="5" height="918.373" transform="rotate(-45 1269.79 -144.743)" fill="#51E5A1"/>
<rect x="1323.53" y="-198.483" width="5" height="918.373" transform="rotate(-45 1323.53 -198.483)" fill="#51E5A1"/>
<rect x="1256.28" y="-131.235" width="5" height="918.373" transform="rotate(-45 1256.28 -131.235)" fill="#51E5A1"/>
<rect x="1310.09" y="-185.048" width="5" height="918.373" transform="rotate(-45 1310.09 -185.048)" fill="#51E5A1"/>
<rect x="1283.22" y="-158.178" width="5" height="918.373" transform="rotate(-45 1283.22 -158.178)" fill="#51E5A1"/>
<rect x="1336.96" y="-211.918" width="5" height="918.373" transform="rotate(-45 1336.96 -211.918)" fill="#51E5A1"/>
<rect x="1349.62" y="-224.573" width="5" height="918.373" transform="rotate(-45 1349.62 -224.573)" fill="#51E5A1"/>
<rect x="1403.43" y="-278.386" width="5" height="918.373" transform="rotate(-45 1403.43 -278.386)" fill="#51E5A1"/>
<rect x="1376.56" y="-251.516" width="5" height="918.373" transform="rotate(-45 1376.56 -251.516)" fill="#51E5A1"/>
<rect x="1430.3" y="-305.256" width="5" height="918.373" transform="rotate(-45 1430.3 -305.256)" fill="#51E5A1"/>
<rect x="1363.05" y="-238.009" width="5" height="918.373" transform="rotate(-45 1363.05 -238.009)" fill="#51E5A1"/>
<rect x="1416.87" y="-291.821" width="5" height="918.373" transform="rotate(-45 1416.87 -291.821)" fill="#51E5A1"/>
<rect x="1390" y="-264.951" width="5" height="918.373" transform="rotate(-45 1390 -264.951)" fill="#51E5A1"/>
<rect x="1443.74" y="-318.691" width="5" height="918.373" transform="rotate(-45 1443.74 -318.691)" fill="#51E5A1"/>
<rect x="1456.39" y="-331.347" width="5" height="918.373" transform="rotate(-45 1456.39 -331.347)" fill="#51E5A1"/>
<rect x="1510.2" y="-385.159" width="5" height="918.373" transform="rotate(-45 1510.2 -385.159)" fill="#51E5A1"/>
<rect x="1483.33" y="-358.289" width="5" height="918.373" transform="rotate(-45 1483.33 -358.289)" fill="#51E5A1"/>
<rect x="1537.07" y="-412.029" width="5" height="918.373" transform="rotate(-45 1537.07 -412.029)" fill="#51E5A1"/>
<rect x="1469.83" y="-344.782" width="5" height="918.373" transform="rotate(-45 1469.83 -344.782)" fill="#51E5A1"/>
<rect x="1523.64" y="-398.594" width="5" height="918.373" transform="rotate(-45 1523.64 -398.594)" fill="#51E5A1"/>
<rect x="1496.77" y="-371.724" width="5" height="918.373" transform="rotate(-45 1496.77 -371.724)" fill="#51E5A1"/>
<rect x="1550.51" y="-425.464" width="5" height="918.373" transform="rotate(-45 1550.51 -425.464)" fill="#51E5A1"/>
<g filter="url(#filter0_i_3_3)">
<path d="M657.8 311V197.6H654L656.8 171H675.6L695.4 170.8L705 246.4L714.8 171H752.4V311H725.2V227.4L714.6 291H695.6L685 227.4V311H657.8ZM764.245 311V197.6H760.445L763.245 171H791.445V311H764.245ZM802.308 311V197.6H798.508L801.308 171H837.908C848.174 171 855.508 173.267 859.908 177.8C864.441 182.2 866.708 189.467 866.708 199.6V245.2C866.708 255.467 864.508 262.8 860.108 267.2L872.508 311H845.308L834.908 273.8H829.508V311H802.308ZM838.508 197.6H829.508V247.2H838.508C839.174 247.2 839.508 246.867 839.508 246.2V198.6C839.508 197.933 839.174 197.6 838.508 197.6ZM879.586 311L896.186 197.6H891.986L894.786 171H941.386L961.986 311H934.986L931.986 291H909.586L906.586 311H879.586ZM913.386 264.4H928.186L920.786 214.4L913.386 264.4ZM996.216 267V285C996.216 285.667 996.549 286 997.216 286H1003.02C1003.68 286 1004.02 285.667 1004.02 285L1004.22 258.4L981.616 248.6C976.549 246.333 973.149 244 971.416 241.6C969.816 239.2 969.016 235.533 969.016 230.6V198C969.016 187.733 971.216 180.4 975.616 176C980.016 171.6 987.149 169.4 997.016 169.4H1005.42C1014.75 169.8 1021.42 172.267 1025.42 176.8C1029.42 181.2 1031.42 188.267 1031.42 198V223L1004.22 220V197C1004.22 196.333 1003.88 196 1003.22 196H997.216C996.549 196 996.216 196.333 996.216 197V226.4L1018.82 236.2C1023.88 238.333 1027.22 240.667 1028.82 243.2C1030.55 245.6 1031.42 249.267 1031.42 254.2V284C1031.42 293.733 1029.42 300.867 1025.42 305.4C1021.42 309.8 1014.75 312.2 1005.42 312.6H997.416C987.282 312.6 980.016 310.4 975.616 306C971.216 301.467 969.016 294.133 969.016 284V267H996.216ZM1042.18 311V197.6H1038.38L1041.18 171H1069.38V231.8H1080.38V171H1107.58V311H1080.38V258.4H1069.38V311H1042.18ZM1119.32 311V197.6H1115.52L1118.32 171H1146.52V207.6L1163.72 171H1189.72L1162.32 229.4L1193.32 311H1167.32L1146.52 256.2V311H1119.32ZM1230.56 254.4L1232.16 227.8H1265.76V283.2C1265.76 293.333 1263.49 300.667 1258.96 305.2C1254.56 309.6 1247.23 311.8 1236.96 311.8H1226.16C1215.89 311.8 1208.49 309.6 1203.96 305.2C1199.56 300.667 1197.36 293.333 1197.36 283.2V198.8C1197.36 188.533 1199.56 181.2 1203.96 176.8C1208.49 172.4 1215.89 170.2 1226.16 170.2H1236.96C1247.23 170.2 1254.56 172.4 1258.96 176.8C1263.49 181.2 1265.76 188.533 1265.76 198.8V218.6L1238.56 215.6V197.8C1238.56 197.133 1238.23 196.8 1237.56 196.8H1225.56C1224.89 196.8 1224.56 197.133 1224.56 197.8V284.2C1224.56 284.867 1224.89 285.2 1225.56 285.2H1237.56C1238.23 285.2 1238.56 284.867 1238.56 284.2V254.4H1230.56Z" fill="#51E5A1"/>
</g>
</g>
<defs>
<filter id="filter0_i_3_3" x="654" y="169.4" width="613.759" height="145.2" filterUnits="userSpaceOnUse" color-interpolation-filters="sRGB">
<feFlood flood-opacity="0" result="BackgroundImageFix"/>
<feBlend mode="normal" in="SourceGraphic" in2="BackgroundImageFix" result="shape"/>
<feColorMatrix in="SourceAlpha" type="matrix" values="0 0 0 0 0 0 0 0 0 0 0 0 0 0 0 0 0 0 127 0" result="hardAlpha"/>
<feOffset dx="4" dy="4"/>
<feGaussianBlur stdDeviation="1"/>
<feComposite in2="hardAlpha" operator="arithmetic" k2="-1" k3="1"/>
<feColorMatrix type="matrix" values="0 0 0 0 0 0 0 0 0 0 0 0 0 0 0 0 0 0 0.25 0"/>
<feBlend mode="normal" in2="shape" result="effect1_innerShadow_3_3"/>
</filter>
<clipPath id="clip0_3_3">
<rect width="1920" height="480" fill="white"/>
</clipPath>
</defs>
</svg>
